<svg width="266" height="643" viewBox="0 0 266 643" fill="none" xmlns="http://www.w3.org/2000/svg">
<path d="M239.316 560.857L228.865 615.515L211.247 642.999C204.395 624.781 190.981 623.545 190.981 623.545C193.901 602.566 181.988 560.857 181.988 560.857H239.316Z" fill="#F1B104"/>
<path d="M237.032 572.798L239.315 560.857H181.988L182.361 562.212L237.032 572.798Z" fill="#573240"/>
<path d="M211.248 643H174.808C174.808 643 190.862 631.963 190.983 623.544C190.983 623.544 204.395 624.781 211.248 643Z" fill="#96CFCE"/>
<path d="M228.867 615.513C228.867 615.513 239.639 623.257 234.2 643H231.371C231.371 643 230.571 629.764 217.483 633.272L228.867 615.513Z" fill="#96CFCE"/>
<path fill-rule="evenodd" clip-rule="evenodd" d="M229.316 614.813C229.701 615.062 229.813 615.577 229.565 615.964L211.701 643.833H174.808C174.35 643.833 173.978 643.46 173.978 643C173.978 642.54 174.35 642.167 174.808 642.167H210.795L228.168 615.063C228.416 614.677 228.93 614.565 229.316 614.813Z" fill="#573240"/>
<path fill-rule="evenodd" clip-rule="evenodd" d="M230.541 643C230.541 642.54 230.913 642.167 231.371 642.167H234.2C234.658 642.167 235.03 642.54 235.03 643C235.03 643.46 234.658 643.833 234.2 643.833H231.371C230.913 643.833 230.541 643.46 230.541 643Z" fill="#573240"/>
<path d="M125.885 560.857L113.796 615.515L92.8998 642.999C86.2111 625.22 73.2788 623.615 72.6578 623.549C76.0287 602.573 72.1629 560.857 72.1629 560.857H125.885Z" fill="#F1B104"/>
<path d="M123.451 571.857L125.884 560.857H72.1626C72.1626 560.857 72.1151 560.172 72.2436 561.733L123.451 571.857Z" fill="#573240"/>
<path d="M92.8994 643H56.4598C56.4598 643 72.5129 631.963 72.6342 623.544C72.6338 623.544 86.0464 624.781 92.8994 643Z" fill="#96CFCE"/>
<path d="M113.796 615.513C113.796 615.513 124.568 623.257 119.129 643H116.301C116.301 643 114.257 629.257 100.446 633.272L113.796 615.513Z" fill="#96CFCE"/>
<path fill-rule="evenodd" clip-rule="evenodd" d="M114.299 614.851C114.664 615.13 114.734 615.653 114.456 616.018L93.3105 643.833H56.4598C56.0013 643.833 55.6296 643.46 55.6296 643C55.6296 642.54 56.0013 642.167 56.4598 642.167H92.4884L113.136 615.009C113.414 614.643 113.935 614.573 114.299 614.851Z" fill="#573240"/>
<path fill-rule="evenodd" clip-rule="evenodd" d="M115.471 643C115.471 642.54 115.843 642.167 116.301 642.167H119.129C119.588 642.167 119.959 642.54 119.959 643C119.959 643.46 119.588 643.833 119.129 643.833H116.301C115.843 643.833 115.471 643.46 115.471 643Z" fill="#573240"/>
<path d="M53.1952 351.086H10.6292C4.75883 351.086 0 346.314 0 340.427V328.366C0 322.479 4.75883 317.707 10.6292 317.707H53.1952C59.0655 317.707 63.8243 322.479 63.8243 328.366V340.427C63.8243 346.313 59.0655 351.086 53.1952 351.086Z" fill="#573240"/>
<path d="M90.1827 164.247V196.513C90.1827 196.513 81.7801 234.657 73.6335 278.854L73.6302 278.864L53.6485 317.705L43.5382 335.685C38.1537 335.685 38.507 327.187 39.2539 321.875C39.5638 319.67 37.8432 317.705 35.623 317.705H14.3345C38.0142 305.6 77.1612 147.473 77.1612 147.473C77.7872 148.591 78.5118 149.67 79.3315 150.692L90.1827 164.247Z" fill="#F1B104"/>
<path fill-rule="evenodd" clip-rule="evenodd" d="M25.6712 318.528C25.347 318.203 25.347 317.676 25.6712 317.351L31.3117 311.694C31.6359 311.369 32.1616 311.369 32.4859 311.694L38.1263 317.351C38.4506 317.676 38.4506 318.203 38.1263 318.528L32.4858 324.185C32.1616 324.51 31.6359 324.51 31.3117 324.185L25.6712 318.528ZM27.4325 317.939L31.8988 322.419L36.3651 317.939L31.8988 313.46L27.4325 317.939Z" fill="white"/>
<path d="M142.83 374.977L135.867 420.791C135.867 420.791 154.776 512.423 133.257 560.858H71.9091C71.9091 560.858 58.4973 461.809 58.5335 392.865C58.5597 340.061 90.1827 196.513 90.1827 196.513V164.247L79.3311 150.692C73.486 143.39 72.4399 133.332 76.6594 124.978L92.6773 93.2517C94.6968 89.2474 98.244 86.2292 102.512 84.8843L119.861 79.4102L121.183 139.352L165.89 74.5543L201.204 91.9148L167.63 194.984C167.63 194.984 248.124 301.67 252.038 560.857H181.986L142.83 374.977Z" fill="#E86100"/>
<path fill-rule="evenodd" clip-rule="evenodd" d="M113.55 272.435C113.55 271.976 113.922 271.603 114.381 271.603C119.926 271.603 124.69 275.553 125.733 281.014L143.646 374.82C143.732 375.272 143.437 375.708 142.986 375.794C142.536 375.881 142.101 375.585 142.015 375.133L124.102 281.328C124.102 281.328 124.102 281.328 124.102 281.328C123.209 276.65 119.129 273.268 114.381 273.268C113.922 273.268 113.55 272.895 113.55 272.435Z" fill="#573240"/>
<path fill-rule="evenodd" clip-rule="evenodd" d="M82.8189 155.787C83.1765 155.499 83.6991 155.556 83.9861 155.915C87.948 160.864 93.9349 163.743 100.264 163.743C100.722 163.743 101.094 164.116 101.094 164.576C101.094 165.036 100.722 165.409 100.264 165.409C93.4314 165.409 86.9683 162.3 82.6912 156.957C82.4042 156.599 82.4613 156.075 82.8189 155.787Z" fill="#573240"/>
<path d="M182.137 145.936C182.896 143.371 186.314 142.898 187.736 145.161L211.248 182.549H161.885C153.607 182.549 145.893 186.757 141.393 193.725L125.871 217.768C124.63 219.69 125.462 222.271 127.591 223.101L138.865 227.498C143.84 229.438 149.478 228.437 153.486 224.903L165.89 213.966L228.222 225.104C255.068 229.901 275.258 201.041 261.623 177.358L221.902 108.362C217.534 101.27 211.117 95.6784 203.505 92.3295C194.059 88.1736 183.377 94.7422 182.787 105.07L182.137 145.936Z" fill="#F1B104"/>
<path fill-rule="evenodd" clip-rule="evenodd" d="M142.662 202.546C143.046 202.796 143.156 203.312 142.907 203.698L132.47 219.864C132.47 219.864 132.47 219.864 132.47 219.864C131.514 221.344 132.155 223.33 133.793 223.969C134.22 224.136 134.432 224.618 134.266 225.047C134.099 225.476 133.618 225.688 133.191 225.521C130.572 224.5 129.549 221.325 131.076 218.959L131.076 218.959L141.513 202.792C141.763 202.406 142.277 202.296 142.662 202.546Z" fill="#573240"/>
<path fill-rule="evenodd" clip-rule="evenodd" d="M149.546 204.847C149.931 205.097 150.041 205.613 149.792 205.999L139.354 222.166C138.399 223.645 139.039 225.632 140.677 226.271C141.105 226.437 141.316 226.92 141.15 227.348C140.984 227.777 140.503 227.989 140.075 227.823C137.457 226.801 136.433 223.626 137.96 221.261L138.657 221.713L137.96 221.261L148.398 205.094C148.647 204.708 149.161 204.598 149.546 204.847Z" fill="#573240"/>
<path fill-rule="evenodd" clip-rule="evenodd" d="M156.758 206.82C157.143 207.07 157.253 207.585 157.004 207.971L146.566 224.138C146 225.015 145.993 226.069 146.426 226.92C146.635 227.329 146.473 227.831 146.064 228.04C145.656 228.249 145.156 228.086 144.947 227.677C144.26 226.327 144.266 224.637 145.172 223.233C145.172 223.233 145.172 223.233 145.172 223.233L155.61 207.066C155.859 206.68 156.373 206.57 156.758 206.82Z" fill="#573240"/>
<path fill-rule="evenodd" clip-rule="evenodd" d="M170.277 208.139C170.602 208.463 170.604 208.99 170.281 209.316L162.36 217.317C162.037 217.643 161.511 217.645 161.186 217.321C160.86 216.997 160.858 216.47 161.182 216.144L169.102 208.143C169.425 207.817 169.951 207.815 170.277 208.139Z" fill="#573240"/>
<path fill-rule="evenodd" clip-rule="evenodd" d="M207.139 182.549C207.139 182.089 207.511 181.717 207.97 181.717H223.648C224.107 181.717 224.479 182.089 224.479 182.549C224.479 183.009 224.107 183.382 223.648 183.382H207.97C207.511 183.382 207.139 183.009 207.139 182.549Z" fill="#573240"/>
<path d="M160.233 17.0304C161.824 19.883 167.977 10.4279 177.474 18.4396C185.204 24.9615 178.652 31.5753 180.247 33.466C181.843 35.3568 195.646 35.9706 191.705 49.9017C187.142 66.032 163.83 62.1139 160.871 59.2077C157.912 56.3014 137.985 60.8517 137.985 60.8517C137.985 60.8517 112.77 63.3982 112.372 45.6839C112.012 29.6502 126.585 31.2846 126.585 30.4119C126.585 29.5393 118.446 21.8251 120.929 12.0855C123.83 0.70595 135.345 -0.132011 138.39 0.0135347C141.436 0.158414 150.66 -0.132338 160.233 17.0304Z" fill="#573240"/>
<path d="M165.89 74.5549L121.183 139.353L119.862 79.4109L134.562 74.7721L140.463 47.9377H157.186L165.89 74.5549Z" fill="#F1B104"/>
<path d="M155.286 33.7468V46.5862C155.286 50.9592 152.544 54.8596 148.437 56.3291L141.256 58.8986C138.066 60.04 134.652 57.8884 134.294 54.5109L132.821 40.6378C132.382 36.5076 134.364 32.4949 137.906 30.3413L143.885 27.0144C145.024 26.3803 146.306 26.0476 147.609 26.0476C151.849 26.0482 155.286 29.495 155.286 33.7468Z" fill="#F1B104"/>
<path fill-rule="evenodd" clip-rule="evenodd" d="M149.664 36.7261C148.575 35.5305 146.816 35.19 145.205 35.8153C144.777 35.9812 144.296 35.7681 144.131 35.3393C143.965 34.9104 144.178 34.4282 144.605 34.2622C146.768 33.4227 149.279 33.835 150.89 35.6029C151.199 35.9424 151.175 36.4691 150.837 36.7793C150.498 37.0894 149.973 37.0656 149.664 36.7261Z" fill="#573240"/>
<path fill-rule="evenodd" clip-rule="evenodd" d="M137.105 35.9613C135.688 35.2117 133.93 35.4771 132.624 36.5939C132.275 36.8923 131.751 36.8505 131.453 36.5006C131.156 36.1506 131.197 35.6251 131.546 35.3267C133.309 33.8193 135.811 33.3756 137.912 34.5054C137.918 34.5087 137.925 34.5123 137.931 34.516C137.95 34.526 137.969 34.5377 137.991 34.5513C138.034 34.5784 138.083 34.6129 138.137 34.6564C138.245 34.7436 138.37 34.8653 138.503 35.0335C138.767 35.3694 139.057 35.8848 139.309 36.675C139.81 38.2453 140.18 40.9653 139.85 45.7082C139.818 46.167 139.421 46.5129 138.964 46.4809C138.506 46.4489 138.161 46.0511 138.193 45.5923C138.516 40.954 138.138 38.4702 137.727 37.182C137.524 36.543 137.317 36.2154 137.2 36.0657C137.154 36.0074 137.12 35.9752 137.105 35.9613Z" fill="#573240"/>
<path d="M147.125 41.6113C147.756 41.6113 148.267 40.8055 148.267 39.8115C148.267 38.8174 147.756 38.0116 147.125 38.0116C146.495 38.0116 145.983 38.8174 145.983 39.8115C145.983 40.8055 146.495 41.6113 147.125 41.6113Z" fill="#573240"/>
<path d="M135.323 42.1129C135.899 42.1129 136.366 41.3769 136.366 40.4689C136.366 39.561 135.899 38.825 135.323 38.825C134.747 38.825 134.28 39.561 134.28 40.4689C134.28 41.3769 134.747 42.1129 135.323 42.1129Z" fill="#573240"/>
<path d="M159.195 49.199C156.774 53.199 152.713 56.2498 147.283 58.015C143.38 59.2839 139.505 59.5104 138.216 59.4705C136.227 59.2773 134.503 57.5188 134.261 55.4138L133.204 45.1824V45.1657C133.357 45.1557 146.29 44.2664 154.679 40.0866C154.675 40.1299 154.675 40.1732 154.675 40.2165V41.572C153.755 42.0083 152.756 42.4213 151.686 42.811L153.204 53.6053C154.861 52.443 156.392 50.9975 157.614 49.199H159.195Z" fill="white"/>
<path d="M161.458 49.1983H156.704C155.584 49.1983 154.675 48.2871 154.675 47.163V40.2174C154.675 37.8721 156.571 35.9706 158.91 35.9706H161.458C164.797 35.9706 167.503 38.6844 167.503 42.0323V43.1367C167.503 46.4842 164.796 49.1983 161.458 49.1983Z" fill="#F1B104"/>
<path fill-rule="evenodd" clip-rule="evenodd" d="M161.806 40.0909C159.955 40.0909 158.456 41.5949 158.456 43.4504C158.456 43.9103 158.084 44.2831 157.625 44.2831C157.167 44.2831 156.795 43.9103 156.795 43.4504C156.795 40.6752 159.038 38.4256 161.806 38.4256C162.264 38.4256 162.636 38.7984 162.636 39.2582C162.636 39.7181 162.264 40.0909 161.806 40.0909Z" fill="#573240"/>
</svg>
