<svg width="2861" height="2000" viewBox="0 0 2861 2000" fill="none" xmlns="http://www.w3.org/2000/svg">
<path d="M2553.17 1183.15H2501.96L2419.13 462.55H2470.34L2553.17 1183.15Z" fill="#FF6E00"/>
<path d="M2476.25 513.903L2430.93 565.083L2428.02 539.783L2473.35 488.603L2476.25 513.903Z" fill="white"/>
<path d="M2483.58 577.633L2438.25 628.813L2435.34 603.513L2480.67 552.333L2483.58 577.633Z" fill="white"/>
<path d="M2490.9 641.363L2445.58 692.544L2442.67 667.243L2488 616.063L2490.9 641.363Z" fill="white"/>
<path d="M2498.23 705.093L2452.9 756.274L2449.99 730.974L2495.32 679.794L2498.23 705.093Z" fill="white"/>
<path d="M2505.55 768.823L2460.23 819.993L2457.32 794.703L2502.65 743.524L2505.55 768.823Z" fill="white"/>
<path d="M2512.88 832.553L2467.55 883.724L2464.64 858.433L2509.97 807.254L2512.88 832.553Z" fill="white"/>
<path d="M2520.21 896.283L2474.88 947.453L2471.96 922.163L2517.29 870.984L2520.21 896.283Z" fill="white"/>
<path d="M2527.53 960.004L2482.2 1011.18L2479.3 985.893L2524.62 934.714L2527.53 960.004Z" fill="white"/>
<path d="M2534.86 1023.73L2489.53 1074.91L2486.62 1049.61L2531.95 998.443L2534.86 1023.73Z" fill="white"/>
<path d="M2542.18 1087.46L2496.85 1138.64L2493.95 1113.34L2539.27 1062.17L2542.18 1087.46Z" fill="white"/>
<path d="M2809.22 1183.15L2724.6 1925.15C2719.89 1966.12 2685.21 1997.04 2643.97 1997.04H2367.71C2326.47 1997.04 2291.79 1966.12 2287.08 1925.15L2201.96 1183.15H2809.22Z" fill="#A9D8D5"/>
<path d="M2549.51 1151.19L2521.2 1183.15H2501.97L2501.27 1177.07L2546.6 1125.9L2549.51 1151.19Z" fill="white"/>
<path d="M2823.66 1063.37L2724.6 1925.15C2719.89 1966.12 2685.21 1997.04 2643.97 1997.04H2367.71C2326.47 1997.04 2291.78 1966.12 2287.08 1925.15L2188.02 1063.37H2823.66Z" stroke="#A9D8D5" stroke-width="5" stroke-miterlimit="10"/>
<path d="M2433.66 1512.65L2697.42 1323.42C2731.24 1397.2 2711.91 1484.77 2646.89 1531.42C2581.88 1578.06 2492.71 1568.33 2433.66 1512.65Z" fill="#F1B104"/>
<path d="M2601.71 1530.88L2578.23 1435.34L2661.13 1488.11C2653.57 1497.68 2644.58 1506.35 2634.23 1513.77C2624 1521.11 2613.06 1526.8 2601.71 1530.88Z" fill="#FF6E00"/>
<path d="M2588.39 1421.92L2690.72 1399.21C2691.05 1425.05 2684.61 1450.43 2671.79 1472.43L2588.39 1421.92Z" fill="#FF6E00"/>
<path d="M2507.86 1530.67L2562.44 1440.54L2583.63 1535.99C2558.59 1541.22 2532.36 1539.26 2507.86 1530.67Z" fill="#FF6E00"/>
<path d="M2485.77 1520.85C2474.51 1514.72 2463.87 1507.04 2454.18 1497.92L2545.39 1432.48L2485.77 1520.85Z" fill="#FF6E00"/>
<path d="M2584.73 1404.26L2676.89 1338.14C2682.49 1350.36 2686.37 1363.03 2688.55 1375.8L2584.73 1404.26Z" fill="#FF6E00"/>
<path d="M2808.29 1014.12H2203.39C2176.18 1014.12 2154.13 1036.17 2154.13 1063.37H2857.54C2857.54 1036.17 2835.49 1014.12 2808.29 1014.12Z" stroke="#573240" stroke-width="5" stroke-miterlimit="10" stroke-linecap="round"/>
<path d="M2809.71 1014.12C2780.42 889.268 2669.04 801 2540.8 801H2470.87C2342.63 801 2231.26 889.268 2201.96 1014.12H2809.71V1014.12Z" stroke="#573240" stroke-width="5" stroke-miterlimit="10" stroke-linecap="round"/>
<path d="M2597.03 1944.93H2491.66C2478.49 1944.93 2467.82 1934.26 2467.82 1921.09V1815.72C2467.82 1802.56 2478.49 1791.88 2491.66 1791.88H2597.03C2610.19 1791.88 2620.87 1802.56 2620.87 1815.72V1921.09C2620.87 1934.26 2610.19 1944.93 2597.03 1944.93Z" fill="#E0F1F0"/>
<path d="M2681.5 1755.26H2598.58C2585.41 1755.26 2574.74 1744.59 2574.74 1731.42V1648.5C2574.74 1635.33 2585.41 1624.66 2598.58 1624.66H2681.5C2694.67 1624.66 2705.34 1635.33 2705.34 1648.5V1731.42C2705.34 1744.59 2694.66 1755.26 2681.5 1755.26Z" fill="#E0F1F0"/>
<path d="M2399.91 1819H2316.99C2303.83 1819 2293.15 1808.32 2293.15 1795.16V1712.24C2293.15 1699.07 2303.83 1688.4 2316.99 1688.4H2399.91C2413.08 1688.4 2423.75 1699.07 2423.75 1712.24V1795.16C2423.75 1808.32 2413.08 1819 2399.91 1819Z" fill="#E0F1F0"/>
<path d="M2455.83 1433.39C2463.64 1433.39 2469.96 1427.06 2469.96 1419.25C2469.96 1411.45 2463.64 1405.12 2455.83 1405.12C2448.03 1405.12 2441.7 1411.45 2441.7 1419.25C2441.7 1427.06 2448.03 1433.39 2455.83 1433.39Z" stroke="white" stroke-width="5" stroke-miterlimit="10"/>
<path d="M2381.49 1640.17C2389.29 1640.17 2395.62 1633.84 2395.62 1626.04C2395.62 1618.23 2389.29 1611.91 2381.49 1611.91C2373.68 1611.91 2367.36 1618.23 2367.36 1626.04C2367.36 1633.84 2373.68 1640.17 2381.49 1640.17Z" stroke="white" stroke-width="5" stroke-miterlimit="10"/>
<path d="M2347.36 1317.06C2358.4 1317.06 2367.36 1308.11 2367.36 1297.06C2367.36 1286.01 2358.4 1277.06 2347.36 1277.06C2336.31 1277.06 2327.36 1286.01 2327.36 1297.06C2327.36 1308.11 2336.31 1317.06 2347.36 1317.06Z" stroke="white" stroke-width="5" stroke-miterlimit="10"/>
<path d="M2687.55 1523.11C2698.6 1523.11 2707.55 1514.16 2707.55 1503.11C2707.55 1492.07 2698.6 1483.11 2687.55 1483.11C2676.51 1483.11 2667.55 1492.07 2667.55 1503.11C2667.55 1514.16 2676.51 1523.11 2687.55 1523.11Z" stroke="white" stroke-width="5" stroke-miterlimit="10"/>
<path d="M2525.16 1649.04C2531.52 1649.04 2536.66 1643.89 2536.66 1637.54C2536.66 1631.19 2531.52 1626.04 2525.16 1626.04C2518.81 1626.04 2513.66 1631.19 2513.66 1637.54C2513.66 1643.89 2518.81 1649.04 2525.16 1649.04Z" stroke="white" stroke-width="5" stroke-miterlimit="10"/>
<path d="M2715.31 1550.87C2719.45 1550.87 2722.81 1547.51 2722.81 1543.37C2722.81 1539.23 2719.45 1535.87 2715.31 1535.87C2711.17 1535.87 2707.81 1539.23 2707.81 1543.37C2707.81 1547.51 2711.17 1550.87 2715.31 1550.87Z" stroke="white" stroke-width="5" stroke-miterlimit="10"/>
<path d="M2638 1304.15C2644.91 1304.15 2650.5 1298.55 2650.5 1291.65C2650.5 1284.74 2644.91 1279.15 2638 1279.15C2631.1 1279.15 2625.5 1284.74 2625.5 1291.65C2625.5 1298.55 2631.1 1304.15 2638 1304.15Z" stroke="white" stroke-width="5" stroke-miterlimit="10"/>
<path d="M2309.57 1346.19C2313.71 1346.19 2317.07 1342.83 2317.07 1338.69C2317.07 1334.55 2313.71 1331.19 2309.57 1331.19C2305.42 1331.19 2302.07 1334.55 2302.07 1338.69C2302.07 1342.83 2305.42 1346.19 2309.57 1346.19Z" stroke="white" stroke-width="5" stroke-miterlimit="10"/>
<path d="M2317.07 1579.85C2321.21 1579.85 2324.57 1576.49 2324.57 1572.35C2324.57 1568.2 2321.21 1564.85 2317.07 1564.85C2312.92 1564.85 2309.57 1568.2 2309.57 1572.35C2309.57 1576.49 2312.92 1579.85 2317.07 1579.85Z" stroke="white" stroke-width="5" stroke-miterlimit="10"/>
<path d="M1357.26 81.1329V257.103H1280.18V78.6639H903.256V257.103H826.176V81.1329L906.346 0.953857H1277.08L1357.26 81.1329Z" fill="#573240"/>
<path d="M1326.26 257.11V81.1299L1246.08 0.949951H875.351L795.181 81.1299V257.11H486.801L286.801 1997.05H1631.5V257.11H1326.26ZM1249.18 257.11H872.261V78.6599H1249.18V257.11Z" fill="#F1B104"/>
<path d="M1872.5 1997.04H1631.5V257.103H1672.5L1872.5 1997.04Z" fill="#573240"/>
<path d="M1282.56 832.73C1282.56 963.93 1201.54 1075.22 1089.26 1114.25V900.93C1089.26 881.55 1098.84 863.37 1114.97 851.12C1131.92 838.25 1143.14 815.81 1143.14 790.28C1143.14 750.32 1115.66 717.96 1081.77 717.96C1047.88 717.96 1020.4 750.32 1020.4 790.28C1020.4 815.81 1031.62 838.25 1048.57 851.12C1064.7 863.37 1074.28 881.55 1074.28 900.93V1118.98C1050.84 1125.63 1026.2 1129.17 1000.77 1129.17C975.521 1129.17 951.05 1125.68 927.76 1119.12V929.26C927.76 909.88 937.34 891.7 953.47 879.45C962.89 872.3 970.55 862.17 975.49 850.21C979.43 840.67 981.64 829.95 981.64 818.62V725.45C981.64 721.31 978.29 717.96 974.15 717.96H974.14C970.01 717.96 966.65 721.31 966.65 725.45V826.46C966.65 831.83 964.48 836.69 960.96 840.21C957.44 843.73 952.58 845.91 947.21 845.91C936.47 845.91 927.76 837.2 927.76 826.46V725.45C927.76 723.38 926.921 721.51 925.571 720.15C924.211 718.8 922.341 717.96 920.271 717.96C916.131 717.96 912.781 721.31 912.781 725.45V826.46C912.781 837.2 904.081 845.91 893.341 845.91H893.331C882.591 845.91 873.88 837.2 873.88 826.46V725.45C873.88 723.38 873.04 721.51 871.69 720.15C870.33 718.8 868.46 717.96 866.39 717.96C862.25 717.96 858.9 721.31 858.9 725.45V818.62C858.9 829.95 861.111 840.67 865.051 850.21C869.991 862.17 877.641 872.3 887.061 879.45C903.201 891.7 912.781 909.88 912.781 929.26V1114.43C800.241 1075.55 718.98 964.12 718.98 832.73C718.98 669.01 845.141 536.28 1000.77 536.28C1156.4 536.28 1282.56 669.01 1282.56 832.73Z" fill="white"/>
<path d="M795.176 80.1328H1326.26" stroke="#573240" stroke-width="5" stroke-miterlimit="10" stroke-linecap="round"/>
<path d="M2000.03 1694.77L1891.45 1476.69C1866.07 1425.72 1814.04 1393.5 1757.1 1393.5H1051.41C994.475 1393.5 942.444 1425.72 917.064 1476.69L808.484 1694.77H2000.03Z" fill="#F1B104" stroke="#573240" stroke-width="5" stroke-miterlimit="10" stroke-linecap="round"/>
<path d="M1792.91 1763.26C1736.68 1823.29 1664 1846.58 1610.87 1796.81C1557.74 1747.03 1576.24 1672.99 1632.48 1612.96C1688.72 1552.94 1780.03 1527.45 1824.33 1568.96C1868.63 1610.46 1849.15 1703.24 1792.91 1763.26Z" fill="white"/>
<path d="M1764.41 1715.83C1771.72 1678.5 1747.39 1642.31 1710.05 1635C1672.72 1627.69 1636.53 1652.02 1629.22 1689.35C1621.91 1726.69 1646.24 1762.88 1683.58 1770.19C1720.91 1777.5 1757.1 1753.16 1764.41 1715.83Z" fill="#F1B104"/>
<path d="M2421.55 1644.16C2441.53 1707.75 2429.03 1768.3 2372.76 1785.99C2316.48 1803.67 2271.6 1761.14 2251.62 1697.55C2231.64 1633.97 2250 1559.39 2296.93 1544.65C2343.85 1529.9 2401.57 1580.58 2421.55 1644.16Z" fill="white"/>
<path d="M2379.98 1727.1C2401.78 1705.3 2401.78 1669.97 2379.98 1648.17C2358.19 1626.37 2322.85 1626.37 2301.05 1648.17C2279.26 1669.97 2279.26 1705.3 2301.05 1727.1C2322.85 1748.89 2358.19 1748.89 2379.98 1727.1Z" fill="#F1B104"/>
<path d="M1339.27 1772.48L1096.22 1638.49C1136.91 1592.17 1208.75 1580.09 1268.66 1613.12C1328.57 1646.15 1356.72 1713.35 1339.27 1772.48Z" fill="#FF6E00"/>
<path d="M1248.75 1672.48C1244.51 1680.17 1225.42 1691.57 1225.42 1691.57C1225.42 1691.57 1224.86 1669.33 1229.1 1661.64C1233.34 1653.95 1241.17 1650.14 1246.6 1653.14C1252.03 1656.13 1252.99 1664.79 1248.75 1672.48Z" stroke="#573240" stroke-width="4" stroke-miterlimit="10" stroke-linecap="round" stroke-linejoin="round"/>
<path d="M1273.43 1711.69C1264.72 1712.8 1244.26 1704.09 1244.26 1704.09C1244.26 1704.09 1261.88 1690.53 1270.59 1689.42C1279.31 1688.31 1287 1692.39 1287.79 1698.54C1288.57 1704.69 1282.15 1710.58 1273.43 1711.69Z" stroke="#573240" stroke-width="4" stroke-miterlimit="10" stroke-linecap="round" stroke-linejoin="round"/>
<path d="M1182.77 1661.7C1186.48 1669.66 1204.77 1682.32 1204.77 1682.32C1204.77 1682.32 1206.83 1660.18 1203.12 1652.22C1199.41 1644.26 1191.84 1639.93 1186.22 1642.55C1180.61 1645.17 1179.06 1653.74 1182.77 1661.7Z" stroke="#573240" stroke-width="4" stroke-miterlimit="10" stroke-linecap="round" stroke-linejoin="round"/>
<path d="M2002.53 1726.12L2204.01 1553.86C2231.42 1606.47 2217.83 1675.26 2168.17 1717.73C2118.5 1760.19 2049.21 1762.26 2002.53 1726.12Z" fill="#FF6E00"/>
<path d="M2122.11 1679.29C2116.71 1672.82 2113.05 1651.7 2113.05 1651.7C2113.05 1651.7 2133.01 1658.89 2138.41 1665.36C2143.81 1671.83 2144.55 1680.2 2140.05 1684.05C2135.55 1687.9 2127.52 1685.77 2122.11 1679.29Z" stroke="#573240" stroke-width="4" stroke-miterlimit="10" stroke-linecap="round" stroke-linejoin="round"/>
<path d="M2078.89 1687.94C2080.85 1679.72 2095.53 1664.32 2095.53 1664.32C2095.53 1664.32 2101.62 1684.86 2099.66 1693.08C2097.69 1701.3 2091.46 1706.81 2085.72 1705.39C2079.99 1703.97 2076.93 1696.16 2078.89 1687.94Z" stroke="#573240" stroke-width="4" stroke-miterlimit="10" stroke-linecap="round" stroke-linejoin="round"/>
<path d="M2154.05 1623.67C2145.71 1624.26 2128.26 1636.33 2128.26 1636.33C2128.26 1636.33 2147.26 1645.84 2155.59 1645.26C2163.93 1644.67 2170.34 1639.37 2169.91 1633.41C2169.49 1627.45 2162.38 1623.09 2154.05 1623.67Z" stroke="#573240" stroke-width="4" stroke-miterlimit="10" stroke-linecap="round" stroke-linejoin="round"/>
<path d="M1651.19 1729.89C1651.19 1729.89 1573.88 1694.45 1577.41 1589.55C1580.93 1484.65 1674.66 1451.15 1692.18 1483.96C1703.69 1505.51 1690.19 1532.31 1652.66 1546.18C1610.15 1561.88 1584.86 1574.99 1591.01 1624.99C1596.56 1670.17 1617.47 1704.32 1651.19 1729.89Z" fill="#A9D8D5"/>
<path d="M1651.19 1729.89C1651.19 1729.89 1562.16 1669.73 1595.21 1571.69C1622.71 1490.1 1677.35 1497.26 1677.35 1497.26" stroke="#573240" stroke-width="4" stroke-miterlimit="10" stroke-linecap="round" stroke-linejoin="round"/>
<path d="M1609.37 1540.48C1615.1 1532.38 1620.23 1518.9 1617.53 1502.97" stroke="#573240" stroke-width="4" stroke-miterlimit="10" stroke-linecap="round" stroke-linejoin="round"/>
<path d="M1471.17 1762.89C1516.42 1762.89 1553.1 1726.21 1553.1 1680.96C1553.1 1635.71 1516.42 1599.03 1471.17 1599.03C1425.92 1599.03 1389.24 1635.71 1389.24 1680.96C1389.24 1726.21 1425.92 1762.89 1471.17 1762.89Z" fill="#A9D8D5"/>
<path d="M1483.44 1649.52C1482.64 1655.59 1473.15 1667.83 1473.15 1667.83C1473.15 1667.83 1467.14 1653.56 1467.94 1647.49C1468.73 1641.43 1472.85 1636.97 1477.13 1637.53C1481.41 1638.09 1484.23 1643.46 1483.44 1649.52Z" stroke="#573240" stroke-width="4" stroke-miterlimit="10" stroke-linecap="round" stroke-linejoin="round"/>
<path d="M1459.29 1713.48C1460.08 1707.42 1469.57 1695.17 1469.57 1695.17C1469.57 1695.17 1475.58 1709.45 1474.79 1715.51C1473.99 1721.58 1469.88 1726.04 1465.6 1725.48C1461.32 1724.92 1458.49 1719.55 1459.29 1713.48Z" stroke="#573240" stroke-width="4" stroke-miterlimit="10" stroke-linecap="round" stroke-linejoin="round"/>
<path d="M1439.38 1669.43C1445.45 1670.22 1457.69 1679.71 1457.69 1679.71C1457.69 1679.71 1443.42 1685.73 1437.35 1684.93C1431.29 1684.14 1426.83 1680.02 1427.39 1675.74C1427.95 1671.46 1433.32 1668.63 1439.38 1669.43Z" stroke="#573240" stroke-width="4" stroke-miterlimit="10" stroke-linecap="round" stroke-linejoin="round"/>
<path d="M1503.34 1693.58C1497.28 1692.78 1485.04 1683.29 1485.04 1683.29C1485.04 1683.29 1499.31 1677.28 1505.37 1678.08C1511.44 1678.87 1515.9 1682.99 1515.34 1687.27C1514.78 1691.55 1509.41 1694.37 1503.34 1693.58Z" stroke="#573240" stroke-width="4" stroke-miterlimit="10" stroke-linecap="round" stroke-linejoin="round"/>
<path d="M920.865 1748.63C947.745 1748.63 969.535 1726.84 969.535 1699.96C969.535 1673.08 947.745 1651.29 920.865 1651.29C893.986 1651.29 872.195 1673.08 872.195 1699.96C872.195 1726.84 893.986 1748.63 920.865 1748.63Z" fill="white"/>
<path d="M1097.95 1694.92C1077.98 1694.25 1055.78 1688.34 1030.91 1679.66C931.779 1645.02 932.388 1555.06 964.072 1547.47C988.875 1541.52 1007.51 1565.02 1009.55 1605C1011.89 1650.28 1020.2 1682.32 1069.78 1691.36C1079.21 1693.08 1088.64 1694.3 1097.95 1694.92Z" fill="#A9D8D5"/>
<path d="M1111.95 1695.12C1083.79 1696.68 1051.33 1690.96 1019.56 1668.66C967.343 1632.01 969.489 1564.71 969.489 1564.71" stroke="#573240" stroke-width="4" stroke-miterlimit="10" stroke-linecap="round" stroke-linejoin="round"/>
<path d="M1105.11 1693.9C1108.78 1694.5 1049.38 1689.08 1033.15 1637.35C1021.07 1598.85 1050.98 1589.93 1062.98 1602.04C1076.35 1615.55 1065.94 1652.58 1082.91 1677.14C1087.84 1684.27 1087.16 1690.95 1105.11 1693.9Z" fill="#A9D8D5"/>
<path d="M1052.12 1613.44C1052.12 1613.44 1043.39 1678.8 1111.95 1695.12" stroke="#573240" stroke-width="4" stroke-miterlimit="10" stroke-linecap="round" stroke-linejoin="round"/>
<path d="M1951.54 1696.42C1947.2 1697.31 1943.38 1697.11 1939.96 1696.1C1972.05 1681.59 1982.8 1650.08 1990.45 1608.94C1999.43 1560.64 2026.7 1534.95 2057.06 1546C2095.85 1560.11 2082.23 1669.58 1951.54 1696.42Z" fill="#A9D8D5"/>
<path d="M1832.21 1710.91C1867.92 1714.39 1931.02 1709.2 1972.7 1683.67C2041.2 1641.73 2041.3 1566.46 2041.3 1566.46" stroke="#573240" stroke-width="4" stroke-miterlimit="10" stroke-linecap="round" stroke-linejoin="round"/>
<path d="M1840.97 1709.79C1836.27 1710.33 1912.09 1707.02 1935.73 1644.58C1953.31 1598.12 1915.81 1585.53 1899.86 1599.69C1882.08 1615.47 1893.16 1661.4 1870.16 1690.52C1863.49 1698.97 1863.95 1707.19 1840.97 1709.79Z" fill="#A9D8D5"/>
<path d="M1913 1614.25C1913 1614.25 1920.31 1694.76 1832.21 1710.91" stroke="#573240" stroke-width="4" stroke-miterlimit="10" stroke-linecap="round" stroke-linejoin="round"/>
<path d="M2481.04 1694.77L2372.46 1476.69C2347.08 1425.72 2295.05 1393.5 2238.11 1393.5H1757.11C1814.05 1393.5 1866.08 1425.72 1891.46 1476.69L2000.04 1694.77H2481.04Z" stroke="#573240" stroke-width="5" stroke-miterlimit="10" stroke-linecap="round"/>
<path d="M2000.03 1694.77L1891.45 1476.69C1866.07 1425.72 1814.04 1393.5 1757.1 1393.5H1051.41C994.475 1393.5 942.444 1425.72 917.064 1476.69L808.484 1694.77H2000.03Z" stroke="#573240" stroke-width="5" stroke-miterlimit="10" stroke-linecap="round"/>
<path d="M1538.64 1393.5H1192.82V1559.44H1538.64V1393.5Z" fill="#573240"/>
<path d="M2000.04 1695.77L1891.45 1913.86C1866.08 1964.82 1814.04 1997.04 1757.11 1997.04H1051.41C994.475 1997.04 942.442 1964.82 917.066 1913.86L808.484 1695.77H2000.04Z" fill="white"/>
<path d="M2481.03 1694.77L2372.45 1912.85C2347.07 1963.82 2295.04 1996.04 2238.1 1996.04H1757.1C1814.04 1996.04 1866.07 1963.82 1891.45 1912.85L2000.03 1694.77H2481.03Z" fill="white"/>
<path d="M2481.03 1694.77L2372.45 1912.85C2347.07 1963.82 2295.04 1996.04 2238.1 1996.04H1051.41C994.47 1996.04 942.441 1963.82 917.061 1912.85L808.48 1694.77H2481.03Z" fill="white"/>
<path d="M2372.46 1912.85C2347.08 1963.82 2295.05 1996.04 2238.11 1996.04H1757.11C1814.05 1996.04 1866.08 1963.82 1891.46 1912.85L2000.04 1694.77" stroke="#573240" stroke-width="5" stroke-miterlimit="10" stroke-linecap="round"/>
<path d="M2000.03 1694.77L1891.45 1912.85C1866.07 1963.82 1814.04 1996.04 1757.1 1996.04H1021.41" stroke="#573240" stroke-width="5" stroke-miterlimit="10" stroke-linecap="round"/>
<path d="M774.125 1695.77H2515.39" stroke="#573240" stroke-width="5" stroke-miterlimit="10" stroke-linecap="round"/>
<path d="M1396.29 1500.93H1366.53V1471.17C1366.53 1440.27 1391.58 1415.23 1422.47 1415.23H1452.23V1444.99C1452.23 1475.88 1427.19 1500.93 1396.29 1500.93Z" stroke="#A9D8D5" stroke-width="4" stroke-miterlimit="10"/>
<path d="M1452.23 1415.23L1346.84 1520.61" stroke="#A9D8D5" stroke-width="4" stroke-miterlimit="10"/>
<path d="M1420.3 1416.23V1447.16H1451.23" stroke="#A9D8D5" stroke-width="4" stroke-miterlimit="10"/>
<path d="M1390.97 1425.42V1476.49H1442.04" stroke="#A9D8D5" stroke-width="4" stroke-miterlimit="10"/>
<path d="M1341.35 1503.08H1349.17V1495.27C1349.17 1464.38 1324.12 1439.33 1293.23 1439.33H1285.42V1447.14C1285.42 1478.04 1310.46 1503.08 1341.35 1503.08Z" stroke="#A9D8D5" stroke-width="4" stroke-miterlimit="10"/>
<path d="M1285.42 1439.33L1356.77 1510.69" stroke="#A9D8D5" stroke-width="4" stroke-miterlimit="10"/>
<path d="M1325.99 1449.92V1479.9H1296" stroke="#A9D8D5" stroke-width="4" stroke-miterlimit="10"/>
<path d="M2124.12 1168.41L2047.32 1322.66C2026.51 1364.47 1983.83 1390.89 1937.13 1390.89H1733.54C1780.24 1390.89 1822.92 1364.47 1843.73 1322.66L1920.53 1168.41H2124.12V1168.41Z" fill="#573240"/>
<path d="M1920.53 1168.41L1912.36 1184.81L1843.73 1322.66C1822.91 1364.47 1780.24 1390.89 1733.54 1390.89H1441.82C1395.12 1390.89 1352.44 1364.47 1331.63 1322.66L1263 1184.81L1254.83 1168.41H1920.53V1168.41Z" fill="#FF6E00"/>
<path d="M1920.53 1168.41L1908.53 1192.77H1267.16L1254.83 1168.41H1920.53Z" fill="#573240"/>
<path d="M2152.9 1168.41L2060.59 983.006C2039.01 939.674 1994.78 912.282 1946.37 912.282H1734.97C1783.38 912.282 1827.61 939.674 1849.19 983.006L1941.5 1168.41H2152.9Z" fill="#FCD4D0"/>
<path d="M1941.5 1168.41L1849.19 983.006C1827.61 939.674 1783.38 912.282 1734.97 912.282H1432.58C1384.17 912.282 1339.94 939.674 1318.36 983.006L1226.05 1168.41H1941.5Z" fill="white"/>
<path d="M677.568 1212.69L587.418 1997.05H139.638L49.4883 1212.69H677.568Z" fill="white"/>
<path d="M677.564 1212.68L587.414 1997.04H489.864L576.564 1242.68H52.9344L49.4844 1212.68H677.564Z" fill="#E0F1F0"/>
<path d="M726.185 1212.68H0.875L6.625 1180.61C9.085 1166.91 21.005 1156.93 34.925 1156.93H47.365L56.495 1122.12C62.895 1097.67 84.995 1080.62 110.275 1080.62H616.785C642.065 1080.62 664.155 1097.67 670.565 1122.12L679.685 1156.93H692.135C706.055 1156.93 717.975 1166.91 720.425 1180.61L726.185 1212.68Z" fill="#573240"/>
<path d="M139.637 1997.05H587.417" stroke="#573240" stroke-width="5" stroke-miterlimit="10" stroke-linecap="round"/>
<path d="M346.422 1701.9C424.018 1701.9 486.922 1634.74 486.922 1551.9C486.922 1469.06 424.018 1401.9 346.422 1401.9C268.826 1401.9 205.922 1469.06 205.922 1551.9C205.922 1634.74 268.826 1701.9 346.422 1701.9Z" fill="#A9D8D5"/>
<path d="M368.356 1509.27L318.11 1586.44C315.456 1590.51 309.58 1590.77 306.575 1586.95C293.943 1570.87 293.615 1545.44 307.284 1524.44C320.954 1503.45 344.346 1493.47 364.156 1498.52C368.87 1499.72 371.01 1505.2 368.356 1509.27Z" fill="#573240"/>
<path d="M386.767 1576.2C373.233 1596.98 350.164 1606.97 330.487 1602.28C325.725 1601.14 323.542 1595.61 326.214 1591.5L376.267 1514.64C378.938 1510.53 384.882 1510.29 387.848 1514.19C400.102 1530.28 400.301 1555.41 386.767 1576.2Z" fill="#573240"/>
</svg>
