<svg width="1635" height="1635" viewBox="0 0 1635 1635" fill="none" xmlns="http://www.w3.org/2000/svg">
<rect width="1635" height="1635" rx="210" fill="white"/>
<path d="M962.978 569.3C1057.94 543.598 1140.52 566.281 1210.74 637.35C1269.15 696.464 1296.45 765.804 1292.65 845.369C1288.85 924.935 1256.86 995.17 1196.69 1056.08L905.287 1351L432.647 872.639C313.118 751.663 313.118 555.522 432.647 434.546L487.014 379.521C545.228 320.602 612.987 289.218 690.291 285.369C767.595 281.519 834.138 307.823 889.919 364.28C947.013 422.065 971.366 490.405 962.978 569.3ZM613.999 508.043L571.356 551.202C520.13 603.049 520.13 687.109 571.357 738.956L630.197 798.508L765.594 661.473C786.525 640.288 796.639 615.439 795.938 586.925C795.89 557.748 785.038 532.201 763.382 510.282C741.725 488.364 716.81 477.049 688.637 476.339C660.463 475.629 635.584 486.197 613.999 508.043ZM913.699 1085.44L1069.7 927.553C1092.59 904.383 1104.01 877.546 1103.96 847.043C1103.26 815.876 1091.09 788.337 1067.47 764.426C1044.5 741.179 1017.95 729.531 987.808 729.48C957.014 728.766 930.17 739.994 907.277 763.164L751.276 921.053L913.699 1085.44Z" fill="#00A17B"/>
<path d="M860.562 563.233C860.562 563.233 766.813 658.994 696.593 730.063C638.187 789.177 499.832 928.329 499.832 928.329C499.832 928.329 553.186 995.753 613.362 1056.66L1165.71 530.087C1251.83 447.988 1252 291.253 1133.84 285.369L860.562 563.233Z" fill="#00A17B"/>
</svg>
